<svg width="80" height="33" viewBox="0 0 80 33" fill="none" xmlns="http://www.w3.org/2000/svg">
<mask id="mask0_210_573" style="mask-type:luminance" maskUnits="userSpaceOnUse" x="0" y="0" width="80" height="33">
<path d="M80 0.0718994H0V32.7992H80V0.0718994Z" fill="white"/>
</mask>
<g mask="url(#mask0_210_573)">
<path d="M37.837 16.06V25.6534H34.8827V1.96178H42.7181C43.6534 1.94178 44.5834 2.11269 45.4541 2.46469C46.3251 2.81669 47.1196 3.34287 47.792 4.01287C48.471 4.64214 49.0116 5.41396 49.3772 6.27651C49.7427 7.13887 49.9249 8.07178 49.9114 9.01287C49.9307 9.95869 49.7514 10.898 49.3856 11.7658C49.0198 12.6338 48.4761 13.4098 47.792 14.0411C46.4218 15.3871 44.7305 16.0592 42.7181 16.0581L37.837 16.06ZM37.837 4.87869V13.1489H42.7916C43.3347 13.1654 43.8752 13.065 44.3787 12.8541C44.882 12.6432 45.3371 12.3263 45.7147 11.924C46.0905 11.5476 46.3891 11.0976 46.5931 10.6003C46.7969 10.103 46.902 9.56869 46.902 9.02887C46.902 8.48905 46.7969 7.95469 46.5931 7.45741C46.3891 6.96014 46.0905 6.51014 45.7147 6.13378C45.3418 5.72287 44.8883 5.39832 44.3843 5.1816C43.8803 4.96487 43.3374 4.86087 42.7916 4.87669H37.837V4.87869Z" fill="white"/>
<path d="M56.7202 8.91516C58.9039 8.91516 60.6275 9.51625 61.8911 10.7184C63.1549 11.9208 63.786 13.5692 63.7849 15.6635V25.6539H60.9589V23.4044H60.8306C59.6073 25.257 57.9802 26.1833 55.9495 26.1833C54.216 26.1833 52.7659 25.6539 51.5988 24.5953C51.0386 24.1095 50.591 23.501 50.288 22.8143C49.9851 22.1275 49.8349 21.3799 49.8482 20.6257C49.8482 18.9484 50.4635 17.6144 51.6942 16.6239C52.9248 15.6333 54.5677 15.1368 56.6229 15.1343C58.3771 15.1343 59.8219 15.4652 60.9571 16.1268V15.4312C60.9606 14.917 60.8528 14.4084 60.6417 13.9426C60.4306 13.4766 60.1215 13.065 59.7369 12.7373C58.9557 12.0112 57.9375 11.615 56.8853 11.6277C55.2351 11.6277 53.9291 12.3448 52.9677 13.779L50.3657 12.0908C51.7969 9.97371 53.9151 8.91516 56.7202 8.91516ZM52.8979 20.6919C52.8959 21.0792 52.9839 21.4613 53.1542 21.8066C53.3248 22.1519 53.5728 22.4503 53.8779 22.6766C54.5311 23.2063 55.3422 23.4866 56.1733 23.4706C57.42 23.4684 58.6151 22.9573 59.4966 22.0492C60.4751 21.1003 60.9646 19.9868 60.9646 18.709C60.0433 17.9528 58.7588 17.5746 57.1109 17.5746C55.9109 17.5746 54.9102 17.8728 54.1089 18.4688C53.2997 19.0737 52.8979 19.8092 52.8979 20.6919Z" fill="white"/>
<path d="M80.0054 9.44397L70.1405 32.7989H67.0909L70.7516 24.6271L64.2649 9.44397H67.4762L72.1645 21.0883H72.2289L76.7887 9.44397H80.0054Z" fill="white"/>
<path d="M25.8991 13.9926C25.9002 13.0651 25.8242 12.1391 25.6717 11.2251H13.212V16.4669H20.3482C20.2022 17.3042 19.8931 18.1022 19.4397 18.8131C18.9862 19.5238 18.3977 20.1327 17.7097 20.6029V24.0056H21.9686C24.4624 21.6369 25.8991 18.1342 25.8991 13.9926Z" fill="#4285F4"/>
<path d="M13.2125 27.2927C16.7778 27.2927 19.78 26.0867 21.969 24.0072L17.71 20.6047C16.5247 21.4327 14.998 21.9052 13.2125 21.9052C9.76632 21.9052 6.84141 19.5121 5.79541 16.2872H1.40796V19.7938C2.5076 22.048 4.19378 23.9429 6.27832 25.267C8.36287 26.5912 10.7636 27.2925 13.2125 27.2927Z" fill="#34A853"/>
<path d="M5.79436 16.2874C5.24127 14.5976 5.24127 12.7674 5.79436 11.0776V7.57104H1.40691C0.481818 9.46741 0 11.5601 0 13.6825C0 15.8049 0.481818 17.8976 1.40691 19.794L5.79436 16.2874Z" fill="#FBBC04"/>
<path d="M13.2125 5.45939C15.0967 5.42776 16.9172 6.16103 18.2807 7.50103L22.0516 3.6163C19.6605 1.30266 16.4927 0.0324828 13.2125 0.0719373C10.7636 0.0721191 8.36287 0.773393 6.27832 2.09757C4.19378 3.42176 2.5076 5.31666 1.40796 7.57084L5.79541 11.0774C6.84141 7.85248 9.76632 5.45939 13.2125 5.45939Z" fill="#EA4335"/>
</g>
</svg>
