<svg width="80" height="81" viewBox="0 0 80 81" fill="none" xmlns="http://www.w3.org/2000/svg">
<mask id="mask0_210_584" style="mask-type:luminance" maskUnits="userSpaceOnUse" x="0" y="0" width="80" height="81">
<path d="M80 0.435547H0V80.4355H80V0.435547Z" fill="white"/>
</mask>
<g mask="url(#mask0_210_584)">
<path d="M14.6221 28.0532C13.6821 29.1732 12.1845 30.0607 10.6895 29.9308C10.492 28.4207 11.2371 26.8031 12.0971 25.8007C13.0346 24.6582 14.6746 23.8382 16.0045 23.7708C16.1621 25.3483 15.547 26.8982 14.6245 28.0532H14.6221ZM15.9895 30.2283C13.8171 30.0957 11.952 31.4757 10.9221 31.4757C9.86949 31.4757 8.29216 30.2932 6.57464 30.3332C4.34702 30.3607 2.26454 31.6332 1.13197 33.6807C-1.22537 37.7532 0.519589 43.7831 2.78454 47.1031C3.89197 48.7431 5.21711 50.5407 6.96454 50.4907C8.61711 50.4231 9.28207 49.3982 11.2746 49.3982C13.2922 49.3982 13.8645 50.4907 15.6245 50.4508C17.432 50.4231 18.5771 48.8107 19.6845 47.1707C20.947 45.3083 21.467 43.4831 21.4946 43.3932C21.467 43.3532 17.992 42.0132 17.967 37.9757C17.9396 34.5883 20.6996 32.9757 20.8171 32.8831C19.267 30.5407 16.8196 30.2932 15.987 30.2308L15.9895 30.2283ZM28.5295 25.6431V50.2807H32.3171V41.8582H37.5546C42.332 41.8582 45.6922 38.5382 45.6922 33.7458C45.6922 28.9431 42.3996 25.6458 37.6845 25.6458L28.5295 25.6431ZM32.3171 28.8732H36.6796C39.9596 28.8732 41.8371 30.6431 41.8371 33.7557C41.8371 36.8683 39.9596 38.6532 36.6546 38.6532H32.3171V28.8732ZM52.5895 50.4631C54.972 50.4631 57.1722 49.2532 58.1771 47.3231H58.2571V50.2807H61.7571V38.0132C61.7571 34.4732 58.947 32.1707 54.6095 32.1707C50.5996 32.1707 47.6295 34.5007 47.527 37.6908H50.9245C51.2122 36.1683 52.592 35.1782 54.507 35.1782C56.8245 35.1782 58.1146 36.2708 58.1146 38.2782V39.6307L53.4021 39.9182C48.9996 40.1908 46.6295 42.0007 46.6295 45.1658C46.6295 48.3557 49.0796 50.4658 52.5922 50.4658L52.5895 50.4631ZM53.6196 47.5458C51.5996 47.5458 50.3122 46.5683 50.3122 45.0732C50.3122 43.5231 51.5495 42.6108 53.9045 42.4658L58.1122 42.2058V43.5982C58.1122 45.9058 56.1722 47.5458 53.6045 47.5458H53.6196ZM66.4322 56.9858C70.1146 56.9858 71.8495 55.5532 73.3596 51.2431L79.9996 32.4157H76.1596L71.707 46.9582H71.627L67.1746 32.4157H63.2171L69.6245 50.3458L69.2845 51.4382C68.6971 53.2757 67.7621 53.9883 66.0946 53.9883C65.7946 53.9883 65.2221 53.9508 64.987 53.9258V56.8831C65.207 56.9458 66.147 56.9732 66.4196 56.9732L66.4322 56.9858Z" fill="white"/>
</g>
</svg>
