<svg width="60" height="61" viewBox="0 0 60 61" fill="none" xmlns="http://www.w3.org/2000/svg">
<mask id="mask0_210_565" style="mask-type:luminance" maskUnits="userSpaceOnUse" x="0" y="0" width="60" height="61">
<path d="M60 0.435547H0V60.4355H60V0.435547Z" fill="white"/>
</mask>
<g mask="url(#mask0_210_565)">
<path d="M10.9183 53.1914V50.1573C10.9183 48.9942 10.1974 48.2356 8.96122 48.2356C8.34322 48.2356 7.67379 48.4379 7.21029 49.0953C6.84965 48.539 6.33472 48.2356 5.56222 48.2356C5.04707 48.2356 4.53215 48.3873 4.12008 48.9436V48.3368H3.03857V53.1914H4.12008V50.5113C4.12008 49.6516 4.58358 49.247 5.30465 49.247C6.02572 49.247 6.38615 49.7022 6.38615 50.5113V53.1914H7.46765V50.5113C7.46765 49.6516 7.98279 49.247 8.65222 49.247C9.37329 49.247 9.73393 49.7022 9.73393 50.5113V53.1914H10.9183ZM26.9357 48.3368H25.1846V46.8702H24.1031V48.3368H23.1244V49.2976H24.1031V51.5225C24.1031 52.6351 24.5666 53.2925 25.8026 53.2925C26.2661 53.2925 26.7812 53.1408 27.1416 52.9385L26.8326 52.0283C26.5236 52.2305 26.1632 52.2811 25.9056 52.2811C25.3905 52.2811 25.1846 51.9777 25.1846 51.472V49.2976H26.9357V48.3368ZM36.1031 48.2356C35.4851 48.2356 35.073 48.539 34.8156 48.9436V48.3368H33.7339V53.1914H34.8156V50.4608C34.8156 49.6516 35.1761 49.1965 35.8455 49.1965C36.0517 49.1965 36.309 49.247 36.5151 49.2976L36.8241 48.2862C36.6182 48.2356 36.3092 48.2356 36.1031 48.2356ZM22.2489 48.7413C21.7339 48.3873 21.0129 48.2356 20.2404 48.2356C19.0044 48.2356 18.1802 48.8425 18.1802 49.8033C18.1802 50.6125 18.7982 51.0676 19.8797 51.2193L20.3949 51.2699C20.9614 51.371 21.2704 51.5225 21.2704 51.7754C21.2704 52.1294 20.8584 52.3822 20.1373 52.3822C19.4162 52.3822 18.8499 52.1294 18.4892 51.8765L17.9743 52.6857C18.5409 53.0903 19.3134 53.2925 20.0859 53.2925C21.528 53.2925 22.3519 52.6351 22.3519 51.7248C22.3519 50.8653 21.6825 50.4102 20.6524 50.2585L20.1373 50.2079C19.6738 50.1573 19.3134 50.0562 19.3134 49.7528C19.3134 49.3988 19.6738 49.1965 20.2404 49.1965C20.8584 49.1965 21.4764 49.4493 21.7854 49.601L22.2489 48.7413ZM50.9874 48.2356C50.3694 48.2356 49.9573 48.539 49.6997 48.9436V48.3368H48.6182V53.1914H49.6997V50.4608C49.6997 49.6516 50.0604 49.1965 50.7298 49.1965C50.9357 49.1965 51.1933 49.247 51.3994 49.2976L51.7084 48.2862C51.5023 48.2356 51.1933 48.2356 50.9874 48.2356ZM37.1846 50.7642C37.1846 52.2305 38.2146 53.2925 39.8113 53.2925C40.5324 53.2925 41.0473 53.1408 41.5624 52.7363L41.0473 51.8765C40.6352 52.18 40.2234 52.3317 39.7599 52.3317C38.8843 52.3317 38.2663 51.7248 38.2663 50.7642C38.2663 49.8539 38.8843 49.247 39.7599 49.1965C40.2234 49.1965 40.6352 49.3482 41.0473 49.6516L41.5624 48.7919C41.0473 48.3873 40.5324 48.2356 39.8113 48.2356C38.2146 48.2356 37.1846 49.2976 37.1846 50.7642ZM47.1761 50.7642V48.3368H46.0946V48.9436C45.7341 48.4885 45.219 48.2356 44.5496 48.2356C43.1589 48.2356 42.0774 49.2976 42.0774 50.7642C42.0774 52.2305 43.1589 53.2925 44.5496 53.2925C45.2706 53.2925 45.7856 53.0397 46.0946 52.5845V53.1914H47.1761V50.7642ZM43.2105 50.7642C43.2105 49.9045 43.7771 49.1965 44.7041 49.1965C45.5796 49.1965 46.1976 49.8539 46.1976 50.7642C46.1976 51.6237 45.5796 52.3317 44.7041 52.3317C43.7771 52.2811 43.2105 51.6237 43.2105 50.7642ZM30.2833 48.2356C28.8411 48.2356 27.8113 49.247 27.8113 50.7642C27.8113 52.2811 28.8411 53.2925 30.3347 53.2925C31.0558 53.2925 31.7769 53.0903 32.3434 52.6351L31.8283 51.8765C31.4164 52.18 30.9013 52.3822 30.3864 52.3822C29.7167 52.3822 29.0473 52.0788 28.8928 51.2193H32.5494V50.8148C32.601 49.247 31.6738 48.2356 30.2833 48.2356ZM30.2833 49.1459C30.9529 49.1459 31.4164 49.5505 31.5193 50.309H28.9442C29.0473 49.6516 29.5108 49.1459 30.2833 49.1459ZM57.1161 50.7642V46.415H56.0346V48.9436C55.674 48.4885 55.1591 48.2356 54.4894 48.2356C53.0989 48.2356 52.0174 49.2976 52.0174 50.7642C52.0174 52.2305 53.0989 53.2925 54.4894 53.2925C55.2105 53.2925 55.7257 53.0397 56.0346 52.5845V53.1914H57.1161V50.7642ZM53.1504 50.7642C53.1504 49.9045 53.7169 49.1965 54.6439 49.1965C55.5195 49.1965 56.1375 49.8539 56.1375 50.7642C56.1375 51.6237 55.5195 52.3317 54.6439 52.3317C53.7169 52.2811 53.1504 51.6237 53.1504 50.7642ZM16.9956 50.7642V48.3368H15.9142V48.9436C15.5537 48.4885 15.0386 48.2356 14.3691 48.2356C12.9784 48.2356 11.8969 49.2976 11.8969 50.7642C11.8969 52.2305 12.9784 53.2925 14.3691 53.2925C15.09 53.2925 15.6052 53.0397 15.9142 52.5845V53.1914H16.9956V50.7642ZM12.9784 50.7642C12.9784 49.9045 13.545 49.1965 14.472 49.1965C15.3476 49.1965 15.9656 49.8539 15.9656 50.7642C15.9656 51.6237 15.3476 52.3317 14.472 52.3317C13.545 52.2811 12.9784 51.6237 12.9784 50.7642Z" fill="white"/>
<path d="M38.1123 11.4736H21.8889V40.0962H38.1123V11.4736Z" fill="#FF5F00"/>
<path d="M22.9185 25.7836C22.9185 19.9681 25.6997 14.81 29.9745 11.4723C26.8329 9.04506 22.8671 7.57849 18.5409 7.57849C8.292 7.57849 0 15.7201 0 25.7836C0 35.8468 8.292 43.9886 18.5409 43.9886C22.8671 43.9886 26.8329 42.5221 29.9745 40.0946C25.6997 36.8077 22.9185 31.5991 22.9185 25.7836Z" fill="#EB001B"/>
<path d="M59.9997 25.7836C59.9997 35.8468 51.7077 43.9886 41.4588 43.9886C37.1326 43.9886 33.1668 42.5221 30.0251 40.0949C34.3514 36.7571 37.0809 31.5991 37.0809 25.7836C37.0809 19.9681 34.2999 14.81 30.0251 11.4723C33.1668 9.04506 37.1326 7.57849 41.4588 7.57849C51.7077 7.57849 59.9997 15.7706 59.9997 25.7836Z" fill="#F79E1B"/>
</g>
</svg>
