<svg width="25" height="25" viewBox="0 0 25 25" fill="none" xmlns="http://www.w3.org/2000/svg">
<g clip-path="url(#clip0_526_592)">
<path d="M24.031 9.03523C23.8265 8.38413 23.4178 7.81614 22.8655 7.41526C22.3131 7.01438 21.6465 6.8019 20.964 6.80923H16.595L15.268 2.67323C15.0593 2.02218 14.6493 1.45424 14.097 1.05129C13.5447 0.648343 12.8787 0.431213 12.195 0.431213C11.5113 0.431213 10.8453 0.648343 10.293 1.05129C9.74075 1.45424 9.3307 2.02218 9.12202 2.67323L7.79502 6.80923H3.42602C2.74576 6.8102 2.08321 7.02611 1.533 7.42613C0.982785 7.82615 0.573058 8.38982 0.362339 9.03661C0.151619 9.68341 0.150687 10.3803 0.359674 11.0276C0.568661 11.675 0.976878 12.2397 1.52602 12.6412L5.08202 15.2412L3.73002 19.4282C3.51153 20.0776 3.50876 20.7802 3.72213 21.4313C3.93549 22.0824 4.35356 22.6471 4.91402 23.0412C5.46487 23.448 6.13241 23.6659 6.81717 23.6625C7.50193 23.6591 8.16726 23.4345 8.71402 23.0222L12.195 20.4602L15.677 23.0192C16.2269 23.4237 16.8908 23.6434 17.5734 23.6467C18.256 23.65 18.922 23.4368 19.4758 23.0377C20.0296 22.6387 20.4425 22.0743 20.6553 21.4257C20.8681 20.7771 20.8697 20.0778 20.66 19.4282L19.308 15.2412L22.868 12.6412C23.4234 12.2448 23.8364 11.68 24.0459 11.0306C24.2554 10.3811 24.2501 9.68148 24.031 9.03523ZM21.688 11.0262L17.544 14.0552C17.3738 14.1794 17.2472 14.3542 17.1822 14.5546C17.1171 14.755 17.1171 14.9708 17.182 15.1712L18.757 20.0412C18.8367 20.2882 18.836 20.5541 18.7551 20.8007C18.6741 21.0473 18.517 21.2619 18.3064 21.4136C18.0958 21.5653 17.8426 21.6463 17.583 21.645C17.3235 21.6437 17.0711 21.5601 16.862 21.4062L12.787 18.4062C12.6154 18.2802 12.408 18.2122 12.195 18.2122C11.9821 18.2122 11.7747 18.2802 11.603 18.4062L7.52802 21.4062C7.3191 21.5621 7.06595 21.6475 6.80528 21.6498C6.54461 21.6522 6.28996 21.5715 6.07825 21.4194C5.86653 21.2673 5.70877 21.0517 5.62781 20.8039C5.54686 20.5561 5.54693 20.289 5.62802 20.0412L7.20802 15.1712C7.27293 14.9708 7.27289 14.755 7.20788 14.5546C7.14287 14.3542 7.01623 14.1794 6.84602 14.0552L2.70202 11.0262C2.49332 10.8734 2.33825 10.6586 2.25896 10.4124C2.17967 10.1662 2.18021 9.9012 2.2605 9.65532C2.3408 9.40945 2.49674 9.19523 2.70606 9.04328C2.91538 8.89133 3.16736 8.80941 3.42602 8.80923H8.52602C8.73773 8.80922 8.94398 8.74202 9.11507 8.6173C9.28615 8.49258 9.41323 8.31679 9.47802 8.11523L11.028 3.28423C11.1076 3.03701 11.2635 2.82142 11.4734 2.66848C11.6833 2.51553 11.9363 2.43313 12.196 2.43313C12.4557 2.43313 12.7087 2.51553 12.9186 2.66848C13.1285 2.82142 13.2845 3.03701 13.364 3.28423L14.914 8.11523C14.9788 8.31679 15.1059 8.49258 15.277 8.6173C15.4481 8.74202 15.6543 8.80922 15.866 8.80923H20.966C21.2247 8.80941 21.4767 8.89133 21.686 9.04328C21.8953 9.19523 22.0512 9.40945 22.1315 9.65532C22.2118 9.9012 22.2124 10.1662 22.1331 10.4124C22.0538 10.6586 21.8987 10.8734 21.69 11.0262H21.688Z" fill="white"/>
</g>
<defs>
<clipPath id="clip0_526_592">
<rect width="24" height="24" fill="white" transform="translate(0.195068 0.241211)"/>
</clipPath>
</defs>
</svg>
