<svg width="25" height="25" viewBox="0 0 25 25" fill="none" xmlns="http://www.w3.org/2000/svg">
<g clip-path="url(#clip0_526_233)">
<path d="M24.031 9.30372C23.8265 8.65262 23.4178 8.08463 22.8655 7.68375C22.3131 7.28287 21.6465 7.07039 20.964 7.07772H16.595L15.268 2.94172C15.0593 2.29068 14.6493 1.72273 14.097 1.31979C13.5447 0.916837 12.8787 0.699707 12.195 0.699707C11.5113 0.699707 10.8453 0.916837 10.293 1.31979C9.74075 1.72273 9.3307 2.29068 9.12202 2.94172L7.79502 7.07772H3.42602C2.74576 7.07869 2.08321 7.2946 1.533 7.69463C0.982785 8.09465 0.573058 8.65831 0.362339 9.30511C0.151619 9.95191 0.150687 10.6488 0.359674 11.2961C0.568661 11.9435 0.976878 12.5082 1.52602 12.9097L5.08202 15.5097L3.73002 19.6967C3.51153 20.3461 3.50876 21.0487 3.72213 21.6998C3.93549 22.3509 4.35356 22.9156 4.91402 23.3097C5.46487 23.7165 6.13241 23.9344 6.81717 23.931C7.50193 23.9276 8.16726 23.703 8.71402 23.2907L12.195 20.7287L15.677 23.2877C16.2269 23.6922 16.8908 23.9119 17.5734 23.9152C18.256 23.9185 18.922 23.7053 19.4758 23.3062C20.0296 22.9072 20.4425 22.3428 20.6553 21.6942C20.8681 21.0456 20.8697 20.3463 20.66 19.6967L19.308 15.5097L22.868 12.9097C23.4234 12.5133 23.8364 11.9485 24.0459 11.2991C24.2554 10.6496 24.2501 9.94998 24.031 9.30372ZM21.688 11.2947L17.544 14.3237C17.3738 14.4479 17.2472 14.6226 17.1822 14.8231C17.1171 15.0235 17.1171 15.2393 17.182 15.4397L18.757 20.3097C18.8367 20.5567 18.836 20.8226 18.7551 21.0692C18.6741 21.3158 18.517 21.5304 18.3064 21.6821C18.0958 21.8338 17.8426 21.9148 17.583 21.9135C17.3235 21.9122 17.0711 21.8286 16.862 21.6747L12.787 18.6747C12.6154 18.5486 12.408 18.4807 12.195 18.4807C11.9821 18.4807 11.7747 18.5486 11.603 18.6747L7.52802 21.6747C7.3191 21.8306 7.06595 21.916 6.80528 21.9183C6.54461 21.9207 6.28996 21.84 6.07825 21.6879C5.86653 21.5358 5.70877 21.3202 5.62781 21.0724C5.54686 20.8246 5.54693 20.5575 5.62802 20.3097L7.20802 15.4397C7.27293 15.2393 7.27289 15.0235 7.20788 14.8231C7.14287 14.6226 7.01623 14.4479 6.84602 14.3237L2.70202 11.2947C2.49332 11.1419 2.33825 10.9271 2.25896 10.6809C2.17967 10.4347 2.18021 10.1697 2.2605 9.92382C2.3408 9.67794 2.49674 9.46373 2.70606 9.31177C2.91538 9.15982 3.16736 9.0779 3.42602 9.07772H8.52602C8.73773 9.07771 8.94398 9.01051 9.11507 8.8858C9.28615 8.76108 9.41323 8.58528 9.47802 8.38372L11.028 3.55272C11.1076 3.30551 11.2635 3.08991 11.4734 2.93697C11.6833 2.78403 11.9363 2.70163 12.196 2.70163C12.4557 2.70163 12.7087 2.78403 12.9186 2.93697C13.1285 3.08991 13.2845 3.30551 13.364 3.55272L14.914 8.38372C14.9788 8.58528 15.1059 8.76108 15.277 8.8858C15.4481 9.01051 15.6543 9.07771 15.866 9.07772H20.966C21.2247 9.0779 21.4767 9.15982 21.686 9.31177C21.8953 9.46373 22.0512 9.67794 22.1315 9.92382C22.2118 10.1697 22.2124 10.4347 22.1331 10.6809C22.0538 10.9271 21.8987 11.1419 21.69 11.2947H21.688Z" fill="white"/>
</g>
<defs>
<clipPath id="clip0_526_233">
<rect width="24" height="24" fill="white" transform="translate(0.195068 0.509766)"/>
</clipPath>
</defs>
</svg>
