<svg width="25" height="25" viewBox="0 0 25 25" fill="none" xmlns="http://www.w3.org/2000/svg">
<g clip-path="url(#clip0_526_382)">
<path d="M24.031 9.16944C23.8265 8.51834 23.4178 7.95035 22.8655 7.54948C22.3131 7.1486 21.6465 6.93611 20.964 6.94344H16.595L15.268 2.80744C15.0593 2.1564 14.6493 1.58846 14.097 1.18551C13.5447 0.782559 12.8787 0.56543 12.195 0.56543C11.5113 0.56543 10.8453 0.782559 10.293 1.18551C9.74075 1.58846 9.3307 2.1564 9.12202 2.80744L7.79502 6.94344H3.42602C2.74576 6.94441 2.08321 7.16033 1.533 7.56035C0.982785 7.96037 0.573058 8.52403 0.362339 9.17083C0.151619 9.81763 0.150687 10.5145 0.359674 11.1618C0.568661 11.8092 0.976878 12.374 1.52602 12.7754L5.08202 15.3754L3.73002 19.5624C3.51153 20.2118 3.50876 20.9144 3.72213 21.5655C3.93549 22.2166 4.35356 22.7813 4.91402 23.1754C5.46487 23.5822 6.13241 23.8001 6.81717 23.7967C7.50193 23.7933 8.16726 23.5687 8.71402 23.1564L12.195 20.5944L15.677 23.1534C16.2269 23.5579 16.8908 23.7776 17.5734 23.7809C18.256 23.7842 18.922 23.571 19.4758 23.172C20.0296 22.7729 20.4425 22.2085 20.6553 21.5599C20.8681 20.9113 20.8697 20.212 20.66 19.5624L19.308 15.3754L22.868 12.7754C23.4234 12.379 23.8364 11.8142 24.0459 11.1648C24.2554 10.5153 24.2501 9.8157 24.031 9.16944ZM21.688 11.1604L17.544 14.1894C17.3738 14.3136 17.2472 14.4884 17.1822 14.6888C17.1171 14.8892 17.1171 15.105 17.182 15.3054L18.757 20.1754C18.8367 20.4224 18.836 20.6884 18.7551 20.935C18.6741 21.1816 18.517 21.3961 18.3064 21.5478C18.0958 21.6995 17.8426 21.7805 17.583 21.7792C17.3235 21.7779 17.0711 21.6943 16.862 21.5404L12.787 18.5404C12.6154 18.4144 12.408 18.3464 12.195 18.3464C11.9821 18.3464 11.7747 18.4144 11.603 18.5404L7.52802 21.5404C7.3191 21.6964 7.06595 21.7817 6.80528 21.784C6.54461 21.7864 6.28996 21.7057 6.07825 21.5536C5.86653 21.4015 5.70877 21.1859 5.62781 20.9381C5.54686 20.6903 5.54693 20.4232 5.62802 20.1754L7.20802 15.3054C7.27293 15.105 7.27289 14.8892 7.20788 14.6888C7.14287 14.4884 7.01623 14.3136 6.84602 14.1894L2.70202 11.1604C2.49332 11.0076 2.33825 10.7928 2.25896 10.5466C2.17967 10.3004 2.18021 10.0354 2.2605 9.78954C2.3408 9.54366 2.49674 9.32945 2.70606 9.1775C2.91538 9.02554 3.16736 8.94363 3.42602 8.94344H8.52602C8.73773 8.94344 8.94398 8.87624 9.11507 8.75152C9.28615 8.6268 9.41323 8.451 9.47802 8.24944L11.028 3.41844C11.1076 3.17123 11.2635 2.95563 11.4734 2.80269C11.6833 2.64975 11.9363 2.56735 12.196 2.56735C12.4557 2.56735 12.7087 2.64975 12.9186 2.80269C13.1285 2.95563 13.2845 3.17123 13.364 3.41844L14.914 8.24944C14.9788 8.451 15.1059 8.6268 15.277 8.75152C15.4481 8.87624 15.6543 8.94344 15.866 8.94344H20.966C21.2247 8.94363 21.4767 9.02554 21.686 9.1775C21.8953 9.32945 22.0512 9.54366 22.1315 9.78954C22.2118 10.0354 22.2124 10.3004 22.1331 10.5466C22.0538 10.7928 21.8987 11.0076 21.69 11.1604H21.688Z" fill="white"/>
</g>
<defs>
<clipPath id="clip0_526_382">
<rect width="24" height="24" fill="white" transform="translate(0.195068 0.375488)"/>
</clipPath>
</defs>
</svg>
