<svg width="21" height="21" viewBox="0 0 21 21" fill="none" xmlns="http://www.w3.org/2000/svg">
<path d="M10.303 20.5C8.32517 20.5 6.39177 19.9135 4.74728 18.8147C3.10279 17.7159 1.82106 16.1541 1.06419 14.3268C0.307311 12.4996 0.109278 10.4889 0.49513 8.5491C0.880982 6.60929 1.83339 4.82746 3.23191 3.42894C4.63044 2.03041 6.41227 1.078 8.35208 0.692152C10.2919 0.306299 12.3026 0.504332 14.1298 1.26121C15.9571 2.01809 17.5189 3.29981 18.6177 4.9443C19.7165 6.58879 20.303 8.52219 20.303 10.5C20.3001 13.1513 19.2456 15.6932 17.3709 17.5679C15.4961 19.4426 12.9543 20.4971 10.303 20.5ZM17.5088 14.6667H14.8246C14.2238 16.0592 13.4326 17.3616 12.4738 18.5367C14.5959 17.9592 16.4049 16.5688 17.5088 14.6667ZM14.053 10.5C14.0461 9.65155 13.9124 8.8089 13.6563 8H6.94965C6.69352 8.8089 6.55982 9.65155 6.55298 10.5C6.55982 11.3485 6.69352 12.1911 6.94965 13H13.6563C13.9124 12.1911 14.0461 11.3485 14.053 10.5ZM7.61798 6.33334H12.988C12.2807 4.9369 11.3764 3.6493 10.303 2.51C9.22912 3.64898 8.32485 4.93663 7.61798 6.33334ZM7.61798 14.6667C8.32528 16.0631 9.22952 17.3507 10.303 18.49C11.3768 17.351 12.2811 16.0634 12.988 14.6667H7.61798ZM8.13631 18.5367C7.17603 17.3618 6.38347 16.0594 5.78131 14.6667H3.09715C4.20203 16.5696 6.0127 17.9602 8.13631 18.5367ZM2.35382 13H5.21965C5.00361 12.184 4.89161 11.3441 4.88632 10.5C4.89161 9.65595 5.00361 8.81596 5.21965 8H2.35382C1.8416 9.62731 1.8416 11.3727 2.35382 13ZM3.09715 6.33334H5.78131C6.38347 4.94058 7.17603 3.63816 8.13631 2.46334C6.0127 3.0398 4.20203 4.43036 3.09715 6.33334ZM12.4738 2.46334C13.4326 3.63841 14.2238 4.94082 14.8246 6.33334H17.5088C16.4049 4.43123 14.5959 3.04078 12.4738 2.46334ZM18.2521 8H15.3863C15.6023 8.81596 15.7143 9.65595 15.7196 10.5C15.7143 11.3441 15.6023 12.184 15.3863 13H18.2505C18.7627 11.3727 18.7627 9.62731 18.2505 8H18.2521Z" fill="white"/>
</svg>
