<svg width="80" height="27" viewBox="0 0 80 27" fill="none" xmlns="http://www.w3.org/2000/svg">
<path d="M22.9956 1.46326H29.5311L19.7278 25.5416H13.1922L7.89726 4.75725C6.64157 3.9546 5.28006 3.23573 3.8578 2.63359L0 1.32945H11.2558C12.5871 1.32945 13.6764 1.73068 14.0395 3.33598L15.9911 13.5525L16.218 14.5725C16.1878 14.5225 16.1725 14.4722 16.1574 14.422L16.218 14.7063L16.8231 18.1843L22.9956 1.46326Z" fill="white"/>
<path d="M33.404 1.39636H39.4553L35.7036 25.4747H29.5311L33.404 1.39636Z" fill="white"/>
<path d="M51.4733 10.8474L51.8002 11.0277C55.4311 12.7668 57.0045 14.9069 57.0045 17.7161C57.0045 22.7994 52.7685 26.1436 46.354 26.1436C43.5702 26.1436 40.9076 25.4748 39.4553 24.8059L40.3025 19.3214L41.1496 19.7226C43.2071 20.6591 44.5385 21.0603 46.9591 21.0603C48.6536 21.0603 50.59 20.2577 50.59 18.6526C50.59 17.5823 49.8638 16.7798 47.4431 15.5758C45.0227 14.3719 41.9969 12.4992 41.9969 8.88733C41.9969 4.07183 46.354 0.727417 52.4053 0.727417C54.826 0.727417 56.7625 1.26265 57.9727 1.79768L57.0045 7.01461L56.3993 6.74719C55.31 6.21196 53.8578 5.81074 51.8002 5.81074C49.3796 5.81074 48.2905 6.88081 48.2905 7.95107C48.2905 9.09341 49.4892 9.75411 51.4733 10.8474Z" fill="white"/>
<path fill-rule="evenodd" clip-rule="evenodd" d="M74.9169 1.39636H70.1967C68.7442 1.39636 67.6551 1.53017 67.05 3.13527L57.9727 25.4747H64.5082L65.7187 21.4616H73.4644L74.1907 25.4747H80L74.9169 1.39636ZM67.4131 17.5824V17.4486C67.8971 16.1109 69.8336 10.3589 69.8336 10.3589C69.8336 10.3589 70.3178 8.88743 70.6809 7.95097L71.0438 10.2251C71.0438 10.2251 72.2542 16.2447 72.4962 17.5824H67.4131Z" fill="white"/>
</svg>
